<svg width="245" height="476" viewBox="0 0 245 476" fill="none" xmlns="http://www.w3.org/2000/svg">
<g clip-path="url(#clip0_41_10)">
<rect width="245" height="476" rx="40" fill="#4047C1"/>
<circle cx="43" cy="42" r="65" fill="#8888EA" fill-opacity="0.12"/>
<circle cx="268" cy="267" r="65" fill="#8888EA" fill-opacity="0.12"/>
<circle cx="206" cy="39" r="10" fill="#8888EA" fill-opacity="0.12"/>
<circle cx="13" cy="220" r="10" fill="#8888EA" fill-opacity="0.12"/>
<circle cx="43" cy="374" r="15" stroke="#FCA82F" stroke-opacity="0.24" stroke-width="10"/>
<circle cx="245" cy="394" r="15" stroke="#FCA82F" stroke-opacity="0.24" stroke-width="10"/>
<path d="M170.686 107.909L206.866 122.393L176.232 146.483L170.686 107.909Z" fill="#6066D0"/>
<path d="M87.672 211.152L83.28 228H78.312L75.624 216.912L72.84 228H67.872L63.6 211.152H67.992L70.416 223.416L73.416 211.152H77.928L80.808 223.416L83.256 211.152H87.672ZM102.354 221.088C102.354 221.472 102.33 221.872 102.282 222.288H92.9942C93.0582 223.12 93.3222 223.76 93.7862 224.208C94.2662 224.64 94.8502 224.856 95.5382 224.856C96.5622 224.856 97.2742 224.424 97.6742 223.56H102.042C101.818 224.44 101.41 225.232 100.818 225.936C100.242 226.64 99.5142 227.192 98.6342 227.592C97.7542 227.992 96.7702 228.192 95.6822 228.192C94.3702 228.192 93.2022 227.912 92.1782 227.352C91.1542 226.792 90.3542 225.992 89.7782 224.952C89.2022 223.912 88.9142 222.696 88.9142 221.304C88.9142 219.912 89.1942 218.696 89.7542 217.656C90.3302 216.616 91.1302 215.816 92.1542 215.256C93.1782 214.696 94.3542 214.416 95.6822 214.416C96.9782 214.416 98.1302 214.688 99.1382 215.232C100.146 215.776 100.93 216.552 101.49 217.56C102.066 218.568 102.354 219.744 102.354 221.088ZM98.1542 220.008C98.1542 219.304 97.9142 218.744 97.4342 218.328C96.9542 217.912 96.3542 217.704 95.6342 217.704C94.9462 217.704 94.3622 217.904 93.8822 218.304C93.4182 218.704 93.1302 219.272 93.0182 220.008H98.1542ZM108.623 210.24V228H104.519V210.24H108.623ZM110.781 221.304C110.781 219.912 111.061 218.696 111.621 217.656C112.197 216.616 112.989 215.816 113.997 215.256C115.021 214.696 116.189 214.416 117.501 214.416C119.181 214.416 120.581 214.856 121.701 215.736C122.837 216.616 123.581 217.856 123.933 219.456H119.565C119.197 218.432 118.485 217.92 117.429 217.92C116.677 217.92 116.077 218.216 115.629 218.808C115.181 219.384 114.957 220.216 114.957 221.304C114.957 222.392 115.181 223.232 115.629 223.824C116.077 224.4 116.677 224.688 117.429 224.688C118.485 224.688 119.197 224.176 119.565 223.152H123.933C123.581 224.72 122.837 225.952 121.701 226.848C120.565 227.744 119.165 228.192 117.501 228.192C116.189 228.192 115.021 227.912 113.997 227.352C112.989 226.792 112.197 225.992 111.621 224.952C111.061 223.912 110.781 222.696 110.781 221.304ZM132.225 228.192C130.913 228.192 129.729 227.912 128.673 227.352C127.633 226.792 126.809 225.992 126.201 224.952C125.609 223.912 125.313 222.696 125.313 221.304C125.313 219.928 125.617 218.72 126.225 217.68C126.833 216.624 127.665 215.816 128.721 215.256C129.777 214.696 130.961 214.416 132.273 214.416C133.585 214.416 134.769 214.696 135.825 215.256C136.881 215.816 137.713 216.624 138.321 217.68C138.929 218.72 139.233 219.928 139.233 221.304C139.233 222.68 138.921 223.896 138.297 224.952C137.689 225.992 136.849 226.792 135.777 227.352C134.721 227.912 133.537 228.192 132.225 228.192ZM132.225 224.64C133.009 224.64 133.673 224.352 134.217 223.776C134.777 223.2 135.057 222.376 135.057 221.304C135.057 220.232 134.785 219.408 134.241 218.832C133.713 218.256 133.057 217.968 132.273 217.968C131.473 217.968 130.809 218.256 130.281 218.832C129.753 219.392 129.489 220.216 129.489 221.304C129.489 222.376 129.745 223.2 130.257 223.776C130.785 224.352 131.441 224.64 132.225 224.64ZM158.498 214.464C160.162 214.464 161.482 214.968 162.458 215.976C163.45 216.984 163.946 218.384 163.946 220.176V228H159.866V220.728C159.866 219.864 159.634 219.2 159.17 218.736C158.722 218.256 158.098 218.016 157.298 218.016C156.498 218.016 155.866 218.256 155.402 218.736C154.954 219.2 154.73 219.864 154.73 220.728V228H150.65V220.728C150.65 219.864 150.418 219.2 149.954 218.736C149.506 218.256 148.882 218.016 148.082 218.016C147.282 218.016 146.65 218.256 146.186 218.736C145.738 219.2 145.514 219.864 145.514 220.728V228H141.41V214.608H145.514V216.288C145.93 215.728 146.474 215.288 147.146 214.968C147.818 214.632 148.578 214.464 149.426 214.464C150.434 214.464 151.33 214.68 152.114 215.112C152.914 215.544 153.538 216.16 153.986 216.96C154.45 216.224 155.082 215.624 155.882 215.16C156.682 214.696 157.554 214.464 158.498 214.464ZM179.44 221.088C179.44 221.472 179.416 221.872 179.368 222.288H170.08C170.144 223.12 170.408 223.76 170.872 224.208C171.352 224.64 171.936 224.856 172.624 224.856C173.648 224.856 174.36 224.424 174.76 223.56H179.128C178.904 224.44 178.496 225.232 177.904 225.936C177.328 226.64 176.6 227.192 175.72 227.592C174.84 227.992 173.856 228.192 172.768 228.192C171.456 228.192 170.288 227.912 169.264 227.352C168.24 226.792 167.44 225.992 166.864 224.952C166.288 223.912 166 222.696 166 221.304C166 219.912 166.28 218.696 166.84 217.656C167.416 216.616 168.216 215.816 169.24 215.256C170.264 214.696 171.44 214.416 172.768 214.416C174.064 214.416 175.216 214.688 176.224 215.232C177.232 215.776 178.016 216.552 178.576 217.56C179.152 218.568 179.44 219.744 179.44 221.088ZM175.24 220.008C175.24 219.304 175 218.744 174.52 218.328C174.04 217.912 173.44 217.704 172.72 217.704C172.032 217.704 171.448 217.904 170.968 218.304C170.504 218.704 170.216 219.272 170.104 220.008H175.24Z" fill="#FFFEFC"/>
</g>
<defs>
<clipPath id="clip0_41_10">
<rect width="245" height="476" rx="40" fill="white"/>
</clipPath>
</defs>
</svg>
